PathFileType	4	(X/Y/Z)	OpenSim_Sub10_EMGBaseline_Gyro.trc
DataRate	CameraRate	NumFrames	NumMarkers	Units	OrigDataRate	OrigDataStartFrame	OrigNumFrames
100	100	23	8	m	100	4101	8201
Frame#	Time	torso_imu_offset_imu	pelvis_imu_offset_imu	tibia_r_imu_offset_imu	femur_r_imu_offset_imu	tibia_l_imu_offset_imu	femur_l_imu_offset_imu	toes_r_imu_offset_imu	toes_l_imu_offset_imu
				X1	Y1	Z1	X2	Y2	Z2	X3	Y3	Z3	X4	Y4	Z4	X5	Y5	Z5	X6	Y6	Z6	X7	Y7	Z7	X8		Y8	Z8	

4101	41	0.43736800	-0.17198600	0.11599200	0.41482100	0.19427200	-0.23668600	0.03208000	-0.10860200	-0.29356300	-0.32215600	0.02822400	-0.96721100	0.65774100	-0.12368100	-3.67686600	-0.57169600	0.15950400	-1.14661000	-0.00269700	-0.12810900	-0.06130300	0.99892100	4.79935000	-0.50598000
4102	41.01000000	0.41757200	-0.21296300	0.07282800	0.35089300	0.19977600	-0.23633700	0.00010200	-0.11357000	-0.30683000	-0.25608400	0.06057000	-0.95292200	0.34063600	0.02819800	-4.05157500	-0.63123100	0.13478700	-1.06369500	0.00368600	-0.10648100	-0.07672600	1.09686100	4.79232100	-0.64515100
4103	41.02000000	0.41971700	-0.20454800	0.05326700	0.27671400	0.20201900	-0.23321400	-0.08628600	-0.10088500	-0.34271000	-0.18471000	0.07865900	-0.92333400	0.06578400	0.18879700	-4.42090500	-0.70371500	0.11105700	-0.95561900	-0.03909400	-0.09635200	-0.09604400	1.15857100	4.86310300	-0.74583700
4104	41.03000000	0.39175800	-0.19684100	0.04488900	0.20553500	0.19974500	-0.23499600	-0.18002700	-0.08085500	-0.37279000	-0.11947400	0.08067900	-0.88598400	-0.14528500	0.25386700	-4.72271700	-0.74305200	0.09275600	-0.81558200	0.00822100	-0.06408300	-0.11557900	1.14016300	5.03694600	-0.78985700
4105	41.04000000	0.36075800	-0.18954200	0.05060200	0.14541900	0.18982100	-0.23260200	-0.25684500	-0.08353300	-0.40268600	-0.05966700	0.06684400	-0.86332100	-0.34549700	0.23866300	-4.96481100	-0.77962500	0.05901800	-0.66750300	0.03347300	-0.06001000	-0.13728600	1.00093300	5.18470600	-0.78923100
4106	41.05000000	0.32756400	-0.20793300	0.06336200	0.09956200	0.17521000	-0.21856300	-0.33803400	-0.07488900	-0.41908800	-0.00077400	0.06095500	-0.85772900	-0.65309800	0.25606900	-5.22902900	-0.81666000	0.02994900	-0.48854700	0.04461600	-0.04162300	-0.14093900	0.94563300	5.24876200	-0.74701300
4107	41.06000000	0.28298600	-0.24883900	0.06650400	0.06171700	0.14755600	-0.19949000	-0.34914300	-0.05539800	-0.43617900	0.04290100	0.06478400	-0.86225400	-1.13575700	0.41661200	-5.54446900	-0.86121500	0.00294100	-0.29632500	-0.00007100	-0.03899200	-0.14943900	0.99063600	5.30639000	-0.70487200
4108	41.07000000	0.20796000	-0.29309700	0.03586100	0.02118800	0.10707000	-0.17112200	-0.32349800	-0.05041600	-0.46047100	0.10690500	0.08927900	-0.84993400	-1.71534600	0.60035700	-5.87483100	-0.89083400	-0.00849000	-0.12205400	0.02865100	-0.03266500	-0.15319300	0.99722900	5.22731000	-0.70982600
4109	41.08000000	0.12320800	-0.29572200	0.02101100	-0.01758900	0.06130900	-0.14253100	-0.28296900	-0.04951600	-0.47660400	0.20452500	0.12397500	-0.82744900	-2.26034000	0.75731900	-6.12909500	-0.88144300	-0.01584100	0.06955900	-0.00559300	-0.04869700	-0.15660100	1.01113900	4.87973800	-0.83695400
4110	41.09000000	0.03590800	-0.27964000	0.00755700	-0.05793500	0.00964000	-0.11331900	-0.23795600	-0.04746200	-0.48761100	0.28923600	0.14163600	-0.81600700	-2.43779400	0.87257800	-6.19735400	-0.85509200	-0.04329300	0.22907900	-0.00933700	-0.04160300	-0.16593800	0.95374600	4.43128700	-1.11822700
4111	41.10000000	-0.06884200	-0.24323300	-0.01098200	-0.08926300	-0.04449100	-0.08320700	-0.19857100	-0.04593300	-0.49512400	0.32779400	0.13927100	-0.81714100	-1.81434100	0.97837600	-6.10599600	-0.81338100	-0.09656200	0.36146800	-0.01539200	-0.05060400	-0.18213300	0.59488400	4.45671600	-1.53897700
4112	41.11000000	-0.09967300	-0.19444000	0.00475800	-0.14165700	-0.08181000	-0.05565900	-0.15079700	-0.06050900	-0.51038100	0.33131600	0.12711500	-0.81632900	-1.03867300	1.22238500	-5.88290200	-0.74954600	-0.15454100	0.49443800	0.00258900	-0.06239900	-0.20727900	0.22486500	4.60191500	-2.07468900
4113	41.12000000	-0.11966200	-0.16119300	0.01932000	-0.20727700	-0.08541900	-0.03123600	-0.12848900	-0.06636600	-0.53379100	0.30762800	0.08917500	-0.81517800	-0.76989200	1.48380500	-5.55455700	-0.71057200	-0.17279100	0.63945200	0.03631800	-0.06954100	-0.22020400	0.36408900	4.51122900	-2.60847400
4114	41.13000000	-0.16125300	-0.14029800	0.00398400	-0.25930200	-0.07260400	-0.01267300	-0.11303000	-0.05070300	-0.56539700	0.22834600	0.05513400	-0.79697700	-0.62477200	1.38813400	-5.02049800	-0.66438400	-0.13219400	0.77928900	0.06399200	-0.08673100	-0.24234800	0.26408400	4.27705400	-2.99647100
4115	41.14000000	-0.16265400	-0.11395500	-0.02224400	-0.26578000	-0.07277700	0.00246100	-0.09503100	-0.03467900	-0.61680600	0.13324100	0.04515500	-0.77515200	-0.54938900	1.14759900	-4.16194100	-0.51524900	0.01614000	0.89372400	0.06402900	-0.12232600	-0.25777600	0.06501000	4.08697600	-3.19402600
4116	41.15000000	-0.20401200	-0.08428000	-0.06185600	-0.24358800	-0.10172700	0.01704900	-0.07505200	-0.02480400	-0.66814600	0.07284400	0.05599500	-0.75435500	-0.72573000	1.07158700	-3.39747700	-0.25783600	0.23634000	1.01554100	0.04639700	-0.15648200	-0.27465500	0.06078500	3.88763200	-3.05964600
4117	41.16000000	-0.22660300	-0.03395300	-0.07667400	-0.23035200	-0.13817600	0.02671800	-0.06514500	-0.01163800	-0.70144400	0.04975900	0.07553500	-0.74051100	-0.65577600	1.07987300	-3.08772500	0.08071100	0.42196400	1.16071100	0.06685500	-0.17496100	-0.29367000	-0.35837700	3.54813600	-2.59095200
4118	41.17000000	-0.25235000	-0.01077700	-0.08860000	-0.22814100	-0.16313000	0.02220100	-0.09326900	-0.01587000	-0.73895300	0.03229500	0.09737000	-0.72917200	-0.46028800	1.15606000	-2.94149600	0.49967600	0.48691900	1.22036700	0.08803800	-0.23290000	-0.31168600	-0.59751100	3.06003300	-1.93015800
4119	41.18000000	-0.26200300	-0.00619900	-0.10064300	-0.22770900	-0.19438800	0.03271700	-0.14469100	-0.02425300	-0.77176100	0.01378700	0.10411800	-0.71929800	-0.37868400	1.12171000	-2.70048000	0.74588300	0.44437500	1.00848100	0.05667300	-0.25274800	-0.32186200	-0.75127800	2.55019000	-1.29045800
4120	41.19000000	-0.26372700	-0.00810400	-0.10122200	-0.25487400	-0.21234400	0.03392900	-0.22241100	-0.02030500	-0.83590200	-0.01541300	0.09138800	-0.70058700	-0.37534400	0.90231400	-2.35990700	0.74287700	0.26872300	0.52810200	-0.00696600	-0.31329300	-0.33136400	-0.54244000	2.06659500	-0.79788000
4121	41.20000000	-0.26224900	0.01291100	-0.09166900	-0.29109200	-0.20869600	0.01374300	-0.29770400	-0.01155000	-0.90685200	-0.05063500	0.05053000	-0.67449000	-0.38176000	0.48975000	-1.89603700	0.46962200	-0.06894800	0.02126800	0.01118300	-0.36998300	-0.33979500	-0.10696900	1.63954000	-0.44381900
4122	41.21000000	-0.26440700	0.04703400	-0.07198900	-0.29299800	-0.19060500	-0.00640200	-0.38134900	0.00759900	-0.96630100	-0.09818500	0.00289500	-0.64801200	-0.22341000	0.06304500	-1.30589500	0.18189300	-0.39474200	-0.42333300	0.00576600	-0.44924500	-0.33932700	0.16951500	1.16911500	-0.15909500
4123	41.22000000	-0.26971900	0.06844500	-0.05078800	-0.25291000	-0.17257600	-0.02157300	-0.43554300	0.01767200	-1.03032000	-0.16009500	-0.02746700	-0.60585700	-0.00106600	-0.19106100	-0.66196800	-0.06054100	-0.53450400	-0.73387200	0.00348300	-0.53509100	-0.31919000	0.34146700	0.56408900	0.05634800
